<svg id="visual" viewBox="0 0 1920 1080" width="1920" height="1080" xmlns="http://www.w3.org/2000/svg" xmlns:xlink="http://www.w3.org/1999/xlink" version="1.1"><rect x="0" y="0" width="1920" height="1080" fill="#001220"></rect><path d="M0 835L45.7 834.2C91.3 833.3 182.7 831.7 274.2 828.3C365.7 825 457.3 820 548.8 818.8C640.3 817.7 731.7 820.3 823 835C914.3 849.7 1005.7 876.3 1097 888.8C1188.3 901.3 1279.7 899.7 1371.2 888.5C1462.7 877.3 1554.3 856.7 1645.8 850.7C1737.3 844.7 1828.7 853.3 1874.3 857.7L1920 862L1920 1081L1874.3 1081C1828.7 1081 1737.3 1081 1645.8 1081C1554.3 1081 1462.7 1081 1371.2 1081C1279.7 1081 1188.3 1081 1097 1081C1005.7 1081 914.3 1081 823 1081C731.7 1081 640.3 1081 548.8 1081C457.3 1081 365.7 1081 274.2 1081C182.7 1081 91.3 1081 45.7 1081L0 1081Z" fill="#fa7268"></path><path d="M0 921L45.7 916C91.3 911 182.7 901 274.2 898C365.7 895 457.3 899 548.8 909.5C640.3 920 731.7 937 823 934.2C914.3 931.3 1005.7 908.7 1097 905.7C1188.3 902.7 1279.7 919.3 1371.2 931.5C1462.7 943.7 1554.3 951.3 1645.8 946C1737.3 940.7 1828.7 922.3 1874.3 913.2L1920 904L1920 1081L1874.3 1081C1828.7 1081 1737.3 1081 1645.8 1081C1554.3 1081 1462.7 1081 1371.2 1081C1279.7 1081 1188.3 1081 1097 1081C1005.7 1081 914.3 1081 823 1081C731.7 1081 640.3 1081 548.8 1081C457.3 1081 365.7 1081 274.2 1081C182.7 1081 91.3 1081 45.7 1081L0 1081Z" fill="#eb5967"></path><path d="M0 1001L45.7 990.7C91.3 980.3 182.7 959.7 274.2 958.5C365.7 957.3 457.3 975.7 548.8 978.3C640.3 981 731.7 968 823 963.5C914.3 959 1005.7 963 1097 967.3C1188.3 971.7 1279.7 976.3 1371.2 980.8C1462.7 985.3 1554.3 989.7 1645.8 982.3C1737.3 975 1828.7 956 1874.3 946.5L1920 937L1920 1081L1874.3 1081C1828.7 1081 1737.3 1081 1645.8 1081C1554.3 1081 1462.7 1081 1371.2 1081C1279.7 1081 1188.3 1081 1097 1081C1005.7 1081 914.3 1081 823 1081C731.7 1081 640.3 1081 548.8 1081C457.3 1081 365.7 1081 274.2 1081C182.7 1081 91.3 1081 45.7 1081L0 1081Z" fill="#da3f67"></path><path d="M0 1031L45.7 1028.7C91.3 1026.3 182.7 1021.7 274.2 1023.8C365.7 1026 457.3 1035 548.8 1039.2C640.3 1043.3 731.7 1042.7 823 1032.8C914.3 1023 1005.7 1004 1097 997.3C1188.3 990.7 1279.7 996.3 1371.2 998.3C1462.7 1000.3 1554.3 998.7 1645.8 1004.7C1737.3 1010.7 1828.7 1024.3 1874.3 1031.2L1920 1038L1920 1081L1874.3 1081C1828.7 1081 1737.3 1081 1645.8 1081C1554.3 1081 1462.7 1081 1371.2 1081C1279.7 1081 1188.3 1081 1097 1081C1005.7 1081 914.3 1081 823 1081C731.7 1081 640.3 1081 548.8 1081C457.3 1081 365.7 1081 274.2 1081C182.7 1081 91.3 1081 45.7 1081L0 1081Z" fill="#c62368"></path></svg>