<svg id="visual" viewBox="0 0 1920 1080" width="1920" height="1080" xmlns="http://www.w3.org/2000/svg" xmlns:xlink="http://www.w3.org/1999/xlink" version="1.1"><rect x="0" y="0" width="1920" height="1080" fill="#001220"></rect><g fill="#297EA6"><path d="M0 -261.4L58.7 -80.8L248.6 -80.8L95 30.9L153.7 211.5L0 99.9L-153.7 211.5L-95 30.9L-248.6 -80.8L-58.7 -80.8Z" transform="translate(1880 425)"></path><path d="M0 -196.3L44.1 -60.7L186.7 -60.7L71.3 23.2L115.4 158.8L0 75L-115.4 158.8L-71.3 23.2L-186.7 -60.7L-44.1 -60.7Z" transform="translate(1217 595)"></path><path d="M0 -202L45.3 -62.4L192.1 -62.4L73.4 23.8L118.7 163.4L0 77.1L-118.7 163.4L-73.4 23.8L-192.1 -62.4L-45.3 -62.4Z" transform="translate(59 115)"></path></g></svg>