<svg id="visual" viewBox="0 0 900 600" width="900" height="600" xmlns="http://www.w3.org/2000/svg" xmlns:xlink="http://www.w3.org/1999/xlink" version="1.1"><rect x="0" y="0" width="900" height="600" fill="#001220"></rect><path d="M0 415L21.5 416.7C43 418.3 86 421.7 128.8 421C171.7 420.3 214.3 415.7 257.2 404.8C300 394 343 377 385.8 379.8C428.7 382.7 471.3 405.3 514.2 405.5C557 405.7 600 383.3 642.8 382.3C685.7 381.3 728.3 401.7 771.2 403.7C814 405.7 857 389.3 878.5 381.2L900 373L900 601L878.5 601C857 601 814 601 771.2 601C728.3 601 685.7 601 642.8 601C600 601 557 601 514.2 601C471.3 601 428.7 601 385.8 601C343 601 300 601 257.2 601C214.3 601 171.7 601 128.8 601C86 601 43 601 21.5 601L0 601Z" fill="#fa7268"></path><path d="M0 425L21.5 422.7C43 420.3 86 415.7 128.8 414.3C171.7 413 214.3 415 257.2 412.2C300 409.3 343 401.7 385.8 398.2C428.7 394.7 471.3 395.3 514.2 403.7C557 412 600 428 642.8 439C685.7 450 728.3 456 771.2 448.7C814 441.3 857 420.7 878.5 410.3L900 400L900 601L878.5 601C857 601 814 601 771.2 601C728.3 601 685.7 601 642.8 601C600 601 557 601 514.2 601C471.3 601 428.7 601 385.8 601C343 601 300 601 257.2 601C214.3 601 171.7 601 128.8 601C86 601 43 601 21.5 601L0 601Z" fill="#ef5f67"></path><path d="M0 477L21.5 480C43 483 86 489 128.8 486.7C171.7 484.3 214.3 473.7 257.2 471.7C300 469.7 343 476.3 385.8 474.5C428.7 472.7 471.3 462.3 514.2 455.8C557 449.3 600 446.7 642.8 450.5C685.7 454.3 728.3 464.7 771.2 475.5C814 486.3 857 497.7 878.5 503.3L900 509L900 601L878.5 601C857 601 814 601 771.2 601C728.3 601 685.7 601 642.8 601C600 601 557 601 514.2 601C471.3 601 428.7 601 385.8 601C343 601 300 601 257.2 601C214.3 601 171.7 601 128.8 601C86 601 43 601 21.5 601L0 601Z" fill="#e34c67"></path><path d="M0 497L21.5 502.3C43 507.7 86 518.3 128.8 525.3C171.7 532.3 214.3 535.7 257.2 530.5C300 525.3 343 511.7 385.8 505C428.7 498.3 471.3 498.7 514.2 500.5C557 502.3 600 505.7 642.8 503.2C685.7 500.7 728.3 492.3 771.2 492.5C814 492.7 857 501.3 878.5 505.7L900 510L900 601L878.5 601C857 601 814 601 771.2 601C728.3 601 685.7 601 642.8 601C600 601 557 601 514.2 601C471.3 601 428.7 601 385.8 601C343 601 300 601 257.2 601C214.3 601 171.7 601 128.8 601C86 601 43 601 21.5 601L0 601Z" fill="#d53867"></path><path d="M0 539L21.5 544.2C43 549.3 86 559.7 128.8 561.8C171.7 564 214.3 558 257.2 554.8C300 551.7 343 551.3 385.8 550.3C428.7 549.3 471.3 547.7 514.2 551C557 554.3 600 562.7 642.8 561.7C685.7 560.7 728.3 550.3 771.2 542.8C814 535.3 857 530.7 878.5 528.3L900 526L900 601L878.5 601C857 601 814 601 771.2 601C728.3 601 685.7 601 642.8 601C600 601 557 601 514.2 601C471.3 601 428.7 601 385.8 601C343 601 300 601 257.2 601C214.3 601 171.7 601 128.8 601C86 601 43 601 21.5 601L0 601Z" fill="#c62368"></path></svg>